<svg width="20" height="20" viewBox="0 0 20 20" fill="none" xmlns="http://www.w3.org/2000/svg">
<path d="M9.96091 18.3334C5.38758 18.3334 1.66675 14.595 1.66675 10C1.66675 5.40504 5.40508 1.66671 10.0001 1.66671C14.5951 1.66671 18.3334 5.40504 18.3334 10C18.3334 14.595 14.5776 18.3334 9.96091 18.3334ZM10.0001 3.33337C6.32425 3.33337 3.33341 6.32421 3.33341 10C3.33341 13.6759 6.30591 16.6667 9.96091 16.6667C13.6592 16.6667 16.6667 13.6759 16.6667 10C16.6667 6.32421 13.6759 3.33337 10.0001 3.33337Z" fill="#37DBFF"/>
<path d="M9.16675 14.1665H10.8334V8.33317H9.16675V14.1665ZM9.16675 7.49984H10.8334V5.83317H9.16675V7.49984Z" fill="#37DBFF"/>
</svg>
