<svg width="20" height="21" viewBox="0 0 20 21" fill="none" xmlns="http://www.w3.org/2000/svg">
<path d="M9.9999 13.8333C9.80519 13.8337 9.6165 13.7659 9.46657 13.6417L4.46657 9.47501C4.29639 9.33356 4.18937 9.1303 4.16905 8.90994C4.14874 8.68959 4.21679 8.47019 4.35824 8.30001C4.49969 8.12983 4.70295 8.02281 4.9233 8.00249C5.14366 7.98217 5.36306 8.05022 5.53324 8.19167L9.9999 11.925L14.4666 8.32501C14.5518 8.25578 14.6499 8.20409 14.7552 8.1729C14.8605 8.14171 14.9709 8.13163 15.0801 8.14324C15.1892 8.15486 15.2951 8.18794 15.3914 8.24058C15.4878 8.29323 15.5728 8.3644 15.6416 8.45001C15.7179 8.53569 15.7757 8.63621 15.8113 8.74527C15.847 8.85434 15.8598 8.96959 15.8488 9.08381C15.8379 9.19802 15.8034 9.30875 15.7477 9.40905C15.692 9.50935 15.6161 9.59705 15.5249 9.66667L10.5249 13.6917C10.3707 13.7963 10.1858 13.8461 9.9999 13.8333Z" fill="#B2B2B2"/>
</svg>
