<svg width="20" height="20" viewBox="0 0 20 20" fill="none" xmlns="http://www.w3.org/2000/svg">
<path d="M6.72734 10.1617L3.50984 6.94416C2.24317 8.32499 1.76317 9.70833 1.75484 9.73666L1.6665 9.99999L1.754 10.2633C1.77234 10.3192 3.684 15.8333 10.0448 15.8333C10.819 15.8333 11.524 15.7483 12.1715 15.6058L9.88317 13.3175C9.05924 13.2771 8.2798 12.9316 7.69649 12.3483C7.11318 11.765 6.76773 10.9856 6.72734 10.1617ZM10.0448 4.16666C8.499 4.16666 7.23234 4.50333 6.1765 4.99833L3.089 1.91083L1.91067 3.08916L16.9107 18.0892L18.089 16.9108L15.3407 14.1625C17.539 12.535 18.3232 10.2983 18.3348 10.2633L18.4223 9.99999L18.3348 9.73666C18.3165 9.68083 16.4057 4.16666 10.0448 4.16666ZM11.6332 10.455C11.789 9.89083 11.6565 9.25583 11.2232 8.82166C10.7898 8.38749 10.154 8.25583 9.58984 8.41166L8.33317 7.15499C8.84814 6.83831 9.44029 6.66937 10.0448 6.66666C11.8832 6.66666 13.3782 8.16166 13.3782 9.99999C13.3757 10.6044 13.2064 11.1964 12.889 11.7108L11.6332 10.455Z" fill="#B2B2B2"/>
</svg>
