<svg width="44" height="44" viewBox="0 0 44 44" fill="none" xmlns="http://www.w3.org/2000/svg">
<path d="M43 32.3619C40.9707 36.2003 37.86 39.3447 34.0613 41.3975C30.2625 43.4504 25.9462 44.3196 21.6584 43.895C17.3706 43.4705 13.3036 41.7714 9.97189 39.0125C6.64022 36.2537 4.19339 32.559 2.94086 28.3958C1.68833 24.2325 1.68634 19.7876 2.93515 15.6233C4.18395 11.4589 6.62746 7.76199 9.95671 5.0001C13.2859 2.23821 17.3513 0.535377 21.6388 0.106928C25.9262 -0.32152 30.2433 0.543659 34.0439 2.59306L31.4643 7.47238C28.6193 5.93824 25.3876 5.29059 22.1781 5.61131C18.9686 5.93204 15.9253 7.20674 13.4331 9.27422C10.9409 11.3417 9.11176 14.1091 8.17693 17.2265C7.24211 20.3439 7.2436 23.6712 8.18121 26.7877C9.11883 29.9043 10.9505 32.67 13.4445 34.7352C15.9385 36.8005 18.9829 38.0724 22.1927 38.3901C25.4025 38.7079 28.6336 38.0573 31.4773 36.5206C34.321 34.9839 36.6496 32.63 38.1687 29.7567L43 32.3619Z" fill="white"/>
<path d="M25 33C31.0751 33 36 28.0751 36 22C36 15.9249 31.0751 11 25 11C18.9249 11 14 15.9249 14 22C14 28.0751 18.9249 33 25 33Z" fill="url(#paint0_linear_21_2)"/>
<defs>
<linearGradient id="paint0_linear_21_2" x1="14" y1="11" x2="36.4609" y2="11.0425" gradientUnits="userSpaceOnUse">
<stop stop-color="#E239F1"/>
<stop offset="1" stop-color="#2296CB"/>
</linearGradient>
</defs>
</svg>
